<svg width="20" height="20" viewBox="0 0 20 20" fill="none" xmlns="http://www.w3.org/2000/svg">
<path fill-rule="evenodd" clip-rule="evenodd" d="M5.96316 5.26315C5.57656 5.26315 5.26316 5.57655 5.26316 5.96315V19.3C5.26316 19.6866 5.57656 20 5.96316 20H19.3C19.6866 20 20 19.6866 20 19.3V5.96315C20 5.57655 19.6866 5.26315 19.3 5.26315H5.96316ZM8.06842 7.36842C7.68182 7.36842 7.36842 7.68182 7.36842 8.06842V17.1947C7.36842 17.5813 7.68182 17.8947 8.06842 17.8947H17.1947C17.5813 17.8947 17.8947 17.5813 17.8947 17.1947V8.06842C17.8947 7.68182 17.5813 7.36842 17.1947 7.36842H8.06842Z" fill="white"/>
<path fill-rule="evenodd" clip-rule="evenodd" d="M0 0.699999C0 0.3134 0.313401 0 0.7 0H14.0368C14.4234 0 14.7368 0.313401 14.7368 0.7V5.26316H12.6316V2.80526C12.6316 2.41866 12.3182 2.10526 11.9316 2.10526H2.80526C2.41866 2.10526 2.10526 2.41866 2.10526 2.80526V11.9316C2.10526 12.3182 2.41866 12.6316 2.80526 12.6316H5.26316V14.7368H0.699999C0.3134 14.7368 0 14.4234 0 14.0368V0.699999Z" fill="white"/>
<rect x="8.42105" y="11.5789" width="8.42105" height="2.10526" fill="white"/>
<rect x="11.5789" y="16.8421" width="8.42105" height="2.10526" transform="rotate(-90 11.5789 16.8421)" fill="white"/>
</svg>
