<svg xmlns="http://www.w3.org/2000/svg" xmlns:xlink="http://www.w3.org/1999/xlink" version="1.1" x="0px" y="0px" viewBox="0 0 100 125" style="enable-background:new 0 0 100 100;" xml:space="preserve"><path d="M1716.4,1329.5c5.2,0,10.5-2,14.4-6c3.9-3.9,6-9,6-14.4c0-5.5-2.1-10.6-6-14.4l-14.4-14.4l-14.4,14.4c-8,8-8,20.9,0,28.9  C1705.9,1327.5,1711.2,1329.5,1716.4,1329.5z M1706.5,1299.2l9.9-9.9l9.9,9.9c2.6,2.6,4.1,6.2,4.1,9.9c0,3.7-1.5,7.3-4.1,9.9  c-5.5,5.5-14.3,5.5-19.8,0C1701.1,1313.5,1701.1,1304.7,1706.5,1299.2z"/><path d="M1747.7,1285.2c2.9-2.9,2.9-7.5,0-10.3l-5.2-5.2l-5.2,5.2c-2.9,2.9-2.9,7.5,0,10.3C1740.2,1288,1744.8,1288,1747.7,1285.2z"/><path d="M1716.7,1318.6v-6.4c-1.8,0-3.2-1.4-3.2-3.2h-6.4C1707.1,1314.2,1711.4,1318.6,1716.7,1318.6z"/><g><path d="M48.6,21.8h-5.9c-1.3,0-2.6,0.5-3.5,1.5L28.2,34.2H23c-2.8,0-5,2.2-5,5v21.5c0,2.8,2.2,5,5,5h5.2l10.9,10.9   c0.9,0.9,2.2,1.5,3.5,1.5h5.9c2.8,0,5-2.2,5-5V26.8C53.6,24.1,51.4,21.8,48.6,21.8z M46.9,71.4h-3.5L32.5,60.5   c-0.9-0.9-2.2-1.5-3.5-1.5h-4.2V41h4.2c1.3,0,2.6-0.5,3.5-1.5l10.9-10.9h3.5V71.4z"/><path d="M72.5,29.3c-0.4-0.4-0.8-0.4-1.2,0L67.7,33c-0.4,0.4-0.4,0.8,0,1.2C76,43,76,57,67.7,65.9c-0.4,0.4-0.4,0.8,0,1.2l3.6,3.6   c0.4,0.4,0.9,0.4,1.2,0C83.4,59.1,83.4,40.9,72.5,29.3z"/><path d="M63.6,38.3c-0.4-0.4-0.8-0.4-1.2,0l-3.6,3.6c-0.4,0.4-0.4,0.8,0,1.2c3.4,4,3.4,9.9,0,13.9c-0.2,0.4-0.2,0.8,0,1.2l3.6,3.6   c0.4,0.4,0.9,0.4,1.2,0C69.5,55,69.5,45,63.6,38.3z"/></g><text x="0" y="115" fill="#000000" font-size="5px" font-weight="bold" font-family="'Helvetica Neue', Helvetica, Arial-Unicode, Arial, Sans-serif">Created by Tiago Pontarolo</text><text x="0" y="120" fill="#000000" font-size="5px" font-weight="bold" font-family="'Helvetica Neue', Helvetica, Arial-Unicode, Arial, Sans-serif">from the Noun Project</text></svg>