<svg width="20" height="20" viewBox="0 0 20 20" fill="none" xmlns="http://www.w3.org/2000/svg">
<g clip-path="url(#clip0_1_2)">
<path d="M9.89404 0.888123H7.98637C7.56603 0.888123 7.1457 1.04979 6.8547 1.37312L3.29801 4.89747H1.61667C0.711336 4.89747 0 5.60881 0 6.51415V13.4658C0 14.3712 0.711336 15.0825 1.61667 15.0825H3.29801L6.82236 18.6069C7.11336 18.8979 7.5337 19.0919 7.95403 19.0919H9.86171C10.767 19.0919 11.4784 18.3805 11.4784 17.4752V2.5048C11.5107 1.63179 10.7994 0.888123 9.89404 0.888123ZM9.34437 16.9255H8.2127L4.68835 13.4012C4.39735 13.1102 3.97702 12.9162 3.55668 12.9162H2.19868V7.09615H3.55668C3.97702 7.09615 4.39735 6.93448 4.68835 6.61115L8.2127 3.0868H9.34437V16.9255Z" fill="white"/>
<path d="M17.3567 3.31314C17.2274 3.18381 17.0981 3.18381 16.9687 3.31314L15.8047 4.50948C15.6754 4.63881 15.6754 4.76815 15.8047 4.89748C18.4884 7.74283 18.4884 12.2695 15.8047 15.1472C15.6754 15.2765 15.6754 15.4059 15.8047 15.5352L16.9687 16.6992C17.0981 16.8285 17.2597 16.8285 17.3567 16.6992C20.8811 12.9485 20.8811 7.06382 17.3567 3.31314Z" fill="white"/>
<path d="M14.4791 6.22316C14.3497 6.09383 14.2204 6.09383 14.0911 6.22316L12.927 7.38717C12.7977 7.5165 12.7977 7.64583 12.927 7.77517C14.0264 9.06851 14.0264 10.9762 12.927 12.2695C12.8624 12.3989 12.8624 12.5282 12.927 12.6575L14.0911 13.8215C14.2204 13.9509 14.3821 13.9509 14.4791 13.8215C16.3867 11.6229 16.3867 8.3895 14.4791 6.22316Z" fill="white"/>
</g>
<defs>
<clipPath id="clip0_1_2">
<rect width="20" height="20" fill="white"/>
</clipPath>
</defs>
</svg>
