<svg width="20" height="20" viewBox="0 0 20 20" fill="none" xmlns="http://www.w3.org/2000/svg">
<g clip-path="url(#clip0_1_17)">
<path d="M9.80769 0.961548H7.91666C7.5 0.961548 7.08333 1.1218 6.79487 1.44232L3.26923 4.93591H1.60256C0.705128 4.93591 0 5.64103 0 6.53847V13.4295C0 14.3269 0.705128 15.0321 1.60256 15.0321H3.26923L6.79487 18.5577C7.08333 18.8462 7.5 19.0385 7.91666 19.0385H9.80769C10.7051 19.0385 11.4103 18.3333 11.4103 17.4359V2.56411C11.4103 1.69873 10.7051 0.961548 9.80769 0.961548ZM9.26282 16.859H8.14102L4.64743 13.3654C4.35897 13.0769 3.94231 12.8846 3.52564 12.8846H2.17949V7.11539H3.52564C3.94231 7.11539 4.35897 6.95514 4.64743 6.63462L8.14102 3.14103H9.26282V16.859Z" fill="white"/>
<path d="M18.2051 10.0641L19.9038 8.36538C20.032 8.23718 20.032 8.04487 19.9038 7.91666L18.8461 6.85897C18.7179 6.73077 18.5256 6.73077 18.3974 6.85897L16.6987 8.55769L15 6.85897C14.8718 6.73077 14.6795 6.73077 14.5513 6.85897L13.4936 7.91666C13.3654 8.04487 13.3654 8.23718 13.4936 8.36538L15.1923 10.0641L13.4936 11.7628C13.3654 11.891 13.3654 12.0833 13.4936 12.2115L14.5513 13.2692C14.6795 13.3974 14.8718 13.3974 15 13.2692L16.6987 11.5705L18.3974 13.2692C18.5256 13.3974 18.7179 13.3974 18.8461 13.2692L19.9038 12.2115C20.032 12.0833 20.032 11.891 19.9038 11.7628L18.2051 10.0641Z" fill="white"/>
</g>
<defs>
<clipPath id="clip0_1_17">
<rect width="20" height="20" fill="white"/>
</clipPath>
</defs>
</svg>
